# xmcd
#
# Track frame offsets:
#	150
#	18999
#	34906
#	52334
#	68950
#	86642
#	105414
#	124256
#	140179
#	157606
#	174227
#	191950
#
# Disc length: 2809 seconds
#
# Revision: 1
# Processed by: cddbd v1.5.2PL0 Copyright (c) Steve Scherf et al.
# Submitted via: audiograbber 1.83.01
#
DISCID=a70af70c
DTITLE=Chartbuster - 316 cbcdg-20316
DYEAR=2000
DGENRE=cd&g
TTITLE0=x - x
TTITLE1=x - x
TTITLE2=x - x
TTITLE3=x - x
TTITLE4=x - x
TTITLE5=x - x
TTITLE6=Travis Tritt - Modern Day Bonnie And Clyde
TTITLE7=Toby Keith - My List
TTITLE8=Brian McComas - I Could Never Love You Enough
TTITLE9=Trick Pony - Just What I Do
TTITLE10=Sawyer Brown - Circles
TTITLE11=Alabama - Woman He Loves
EXTD=
EXTT0=
EXTT1=
EXTT2=
EXTT3=
EXTT4=
EXTT5=1-6 are with back up vocals.
EXTT6=
EXTT7=
EXTT8=
EXTT9=
EXTT10=
EXTT11=
PLAYORDER=
